<svg xmlns="http://www.w3.org/2000/svg" width="1920" height="1080" viewBox="0 0 1920 1080" fill="none">
  <defs>
    <linearGradient id="bg" x1="320" y1="54" x2="1581" y2="1054" gradientUnits="userSpaceOnUse">
      <stop offset="0" stop-color="#071722"/>
      <stop offset="0.48" stop-color="#0A2330"/>
      <stop offset="1" stop-color="#06131B"/>
    </linearGradient>
    <radialGradient id="glowLeft" cx="0" cy="0" r="1" gradientUnits="userSpaceOnUse" gradientTransform="translate(407 277) rotate(33.7) scale(635 407)">
      <stop stop-color="#2A5368" stop-opacity="0.68"/>
      <stop offset="1" stop-color="#2A5368" stop-opacity="0"/>
    </radialGradient>
    <radialGradient id="glowBottom" cx="0" cy="0" r="1" gradientUnits="userSpaceOnUse" gradientTransform="translate(1494 887) rotate(-22.1) scale(558 333)">
      <stop stop-color="#C5A76F" stop-opacity="0.2"/>
      <stop offset="1" stop-color="#C5A76F" stop-opacity="0"/>
    </radialGradient>
    <linearGradient id="tide" x1="405" y1="685" x2="1522" y2="473" gradientUnits="userSpaceOnUse">
      <stop stop-color="#E4D3AD" stop-opacity="0"/>
      <stop offset="0.15" stop-color="#E4D3AD" stop-opacity="0.36"/>
      <stop offset="0.52" stop-color="#D2B074" stop-opacity="0.94"/>
      <stop offset="0.83" stop-color="#E4D3AD" stop-opacity="0.32"/>
      <stop offset="1" stop-color="#E4D3AD" stop-opacity="0"/>
    </linearGradient>
    <linearGradient id="foam" x1="587" y1="396" x2="1352" y2="711" gradientUnits="userSpaceOnUse">
      <stop stop-color="#DCE7E8" stop-opacity="0.18"/>
      <stop offset="0.5" stop-color="#8CB1BC" stop-opacity="0.12"/>
      <stop offset="1" stop-color="#DCE7E8" stop-opacity="0.02"/>
    </linearGradient>
    <filter id="blurXL" x="0" y="-60" width="1191" height="743" filterUnits="userSpaceOnUse" color-interpolation-filters="sRGB">
      <feGaussianBlur stdDeviation="90"/>
    </filter>
    <filter id="blurL" x="1000" y="496" width="858" height="575" filterUnits="userSpaceOnUse" color-interpolation-filters="sRGB">
      <feGaussianBlur stdDeviation="82"/>
    </filter>
  </defs>

  <rect width="1920" height="1080" fill="url(#bg)"/>

  <g filter="url(#blurXL)" opacity="0.9">
    <ellipse cx="595" cy="311" rx="416" ry="131" fill="url(#glowLeft)"/>
  </g>
  <g filter="url(#blurL)" opacity="0.75">
    <ellipse cx="1429" cy="784" rx="249" ry="83" fill="url(#glowBottom)"/>
  </g>

  <path d="M-57 807C135 742 277 706 461 706C752 706 915 861 1191 861C1408 861 1590 760 1978 629" stroke="#9AB0B7" stroke-opacity="0.08" stroke-width="2"/>
  <path d="M-100 853C137 786 278 763 485 763C767 763 941 930 1204 930C1433 930 1617 821 1986 696" stroke="#D6E1E2" stroke-opacity="0.06" stroke-width="2"/>
  <path d="M-77 913C173 840 320 821 535 821C802 821 979 982 1229 982C1452 982 1648 892 1982 778" stroke="#7B98A3" stroke-opacity="0.1" stroke-width="2"/>

  <path d="M372 624C511 548 645 512 827 512C987 512 1103 565 1243 565C1376 565 1521 528 1710 440" stroke="url(#tide)" stroke-width="3.5" stroke-linecap="round"/>
  <path d="M292 684C476 588 643 540 839 540C1022 540 1139 606 1292 606C1433 606 1560 567 1701 497" stroke="#F1E0B8" stroke-opacity="0.12" stroke-width="1.8" stroke-linecap="round"/>
  <path d="M241 734C448 633 645 585 850 585C1038 585 1181 648 1332 648C1446 648 1556 621 1684 558" stroke="#87A8B2" stroke-opacity="0.16" stroke-width="1.4" stroke-linecap="round"/>

  <path d="M635 351C719 319 810 306 887 316C973 327 1026 372 1101 395C1171 417 1261 420 1374 372" stroke="url(#foam)" stroke-width="1.4" stroke-linecap="round"/>
  <path d="M602 395C698 355 780 346 882 360C970 372 1014 420 1103 443C1184 464 1268 465 1343 440" stroke="#EEF4F4" stroke-opacity="0.08" stroke-width="1.2" stroke-linecap="round"/>

  <circle cx="1331" cy="264" r="3" fill="#D6B97E" fill-opacity="0.95"/>
  <circle cx="1366" cy="294" r="2.1" fill="#EEE1BE" fill-opacity="0.8"/>
  <circle cx="1302" cy="304" r="1.6" fill="#C8D8DC" fill-opacity="0.55"/>
</svg>
